<svg width="12" height="10" viewBox="0 0 12 10" fill="none" xmlns="http://www.w3.org/2000/svg">
<path d="M10.3542 5.63592H0.544959C0.239782 5.63592 0 5.3616 0 5.01248C0 4.66335 0.239782 4.38904 0.544959 4.38904H10.3542C10.6594 4.38904 10.8992 4.66335 10.8992 5.01248C10.8992 5.3616 10.6594 5.63592 10.3542 5.63592Z" fill="#F28500"/>
<path d="M7.6294 9.99996C7.55793 10.001 7.48707 9.98483 7.42137 9.95262C7.35567 9.92041 7.29659 9.87282 7.24793 9.81293C7.02995 9.56355 7.02995 9.17702 7.24793 8.92764L10.6812 4.99998L7.24793 1.07231C7.02995 0.822939 7.02995 0.436407 7.24793 0.187032C7.46591 -0.0623439 7.80379 -0.0623439 8.02177 0.187032L11.8365 4.5511C12.0545 4.80048 12.0545 5.18701 11.8365 5.43639L8.02177 9.80046C7.91278 9.92514 7.77109 9.98749 7.6403 9.98749L7.6294 9.99996Z" fill="#F28500"/>
</svg>
