<svg width="8" height="14" viewBox="0 0 8 14" fill="none" xmlns="http://www.w3.org/2000/svg">
<path d="M1.58525 0.277045L7.79724 6.48285C7.87097 6.55673 7.92307 6.63676 7.95355 6.72296C7.98452 6.80915 8 6.9015 8 7C8 7.09851 7.98452 7.19085 7.95355 7.27705C7.92307 7.36324 7.87097 7.44327 7.79724 7.51715L1.58525 13.7414C1.41321 13.9138 1.19816 14 0.940091 14C0.682026 14 0.460828 13.9077 0.276496 13.723C0.0921646 13.5383 -8.9447e-07 13.3228 -8.72941e-07 13.0765C-8.51412e-07 12.8303 0.0921646 12.6148 0.276497 12.4301L5.69585 7L0.276497 1.56992C0.104455 1.39754 0.0184328 1.18526 0.0184328 0.933088C0.0184328 0.680422 0.110599 0.461742 0.294931 0.277045C0.479263 0.0923484 0.694316 3.14991e-07 0.940092 3.36477e-07C1.18587 3.57964e-07 1.40092 0.0923485 1.58525 0.277045Z" fill="#666666"/>
</svg>
