<svg width="17" height="22" viewBox="0 0 17 22" fill="none" xmlns="http://www.w3.org/2000/svg">
<path d="M2.75001 21.0833C2.22293 21.0833 1.77155 20.8958 1.39589 20.5208C1.02022 20.1457 0.832706 19.6944 0.833345 19.1666V9.58331C0.833345 9.05623 1.02118 8.60486 1.39684 8.22919C1.77251 7.85352 2.22357 7.66601 2.75001 7.66665H3.70834V5.74998C3.70834 4.42429 4.17569 3.29409 5.11039 2.3594C6.04508 1.4247 7.17496 0.957675 8.50001 0.958314C9.82571 0.958314 10.9559 1.42566 11.8906 2.36036C12.8253 3.29505 13.2923 4.42492 13.2917 5.74998V7.66665H14.25C14.7771 7.66665 15.2285 7.85448 15.6041 8.23015C15.9798 8.60581 16.1673 9.05687 16.1667 9.58331V19.1666C16.1667 19.6937 15.9788 20.1451 15.6032 20.5208C15.2275 20.8964 14.7765 21.084 14.25 21.0833H2.75001ZM2.75001 19.1666H14.25V9.58331H2.75001V19.1666ZM8.50001 16.2916C9.02709 16.2916 9.47847 16.1041 9.85414 15.7291C10.2298 15.3541 10.4173 14.9027 10.4167 14.375C10.4167 13.8479 10.2288 13.3968 9.85318 13.0218C9.47751 12.6468 9.02646 12.459 8.50001 12.4583C7.97293 12.4583 7.52155 12.6461 7.14589 13.0218C6.77022 13.3975 6.58271 13.8485 6.58334 14.375C6.58334 14.9021 6.77118 15.3534 7.14684 15.7291C7.52251 16.1048 7.97357 16.2923 8.50001 16.2916ZM5.62501 7.66665H11.375V5.74998C11.375 4.95137 11.0955 4.27255 10.5365 3.71352C9.97744 3.15449 9.29862 2.87498 8.50001 2.87498C7.7014 2.87498 7.02258 3.15449 6.46355 3.71352C5.90453 4.27255 5.62501 4.95137 5.62501 5.74998V7.66665Z" fill="#222222"/>
</svg>
