<svg width="18" height="18" viewBox="0 0 18 18" fill="none" xmlns="http://www.w3.org/2000/svg">
<path d="M6 6H4V8H6V6ZM8 6H10V8H8V6ZM14 6H12V8H14V6Z" fill="#222222"/>
<path d="M0 2V18L4.8 14.4C5.146 14.14 5.567 14 6 14H16C16.5304 14 17.0391 13.7893 17.4142 13.4142C17.7893 13.0391 18 12.5304 18 12V2C18 1.46957 17.7893 0.960859 17.4142 0.585786C17.0391 0.210714 16.5304 0 16 0H2C1.46957 0 0.960859 0.210714 0.585786 0.585786C0.210714 0.960859 0 1.46957 0 2ZM2 14V2H16V12H5.334C4.90107 11.9988 4.47964 12.1393 4.134 12.4L2 14Z" fill="#222222"/>
</svg>
