<svg width="22" height="21" viewBox="0 0 22 21" fill="none" xmlns="http://www.w3.org/2000/svg">
<path d="M5.28571 0.20224V7.09879M16.7143 0.20224V7.09879M4.57143 10.5471H8.85714M17.4286 10.5471H13.1429M4.57143 14.685H8.85714M13.1429 14.685H17.4286M2.42857 3.65052H19.5714C19.9503 3.65052 20.3137 3.79584 20.5816 4.05451C20.8495 4.31318 21 4.66401 21 5.02983V18.8229C21 19.1887 20.8495 19.5396 20.5816 19.7982C20.3137 20.0569 19.9503 20.2022 19.5714 20.2022H2.42857C2.04969 20.2022 1.68633 20.0569 1.41842 19.7982C1.15051 19.5396 1 19.1887 1 18.8229V5.02983C1 4.66401 1.15051 4.31318 1.41842 4.05451C1.68633 3.79584 2.04969 3.65052 2.42857 3.65052Z" stroke="#7D7D7D" stroke-width="1.6"/>
</svg>
