<svg width="22" height="20" viewBox="0 0 22 20" fill="none" xmlns="http://www.w3.org/2000/svg">
<path d="M1 10L11 1.00003L21 10M3.5 8.31253V17.875C3.5 18.1734 3.6317 18.4595 3.86612 18.6705C4.10054 18.8815 4.41848 19 4.75 19H8.5V15.625C8.5 15.3267 8.6317 15.0405 8.86612 14.8295C9.10054 14.6186 9.41848 14.5 9.75 14.5H12.25C12.5815 14.5 12.8995 14.6186 13.1339 14.8295C13.3683 15.0405 13.5 15.3267 13.5 15.625V19H17.25C17.5815 19 17.8995 18.8815 18.1339 18.6705C18.3683 18.4595 18.5 18.1734 18.5 17.875V8.31253" stroke="#7D7D7D" stroke-width="1.6" stroke-linecap="round" stroke-linejoin="round"/>
</svg>
