<svg width="10" height="14" viewBox="0 0 10 14" fill="none" xmlns="http://www.w3.org/2000/svg">
<path d="M10 4.9C10 4.25652 9.87067 3.61935 9.6194 3.02485C9.36812 2.43036 8.99983 1.89018 8.53553 1.43518C8.07124 0.98017 7.52005 0.619238 6.91342 0.37299C6.30679 0.126742 5.65661 0 5 0C4.34339 0 3.69321 0.126742 3.08658 0.37299C2.47995 0.619238 1.92876 0.98017 1.46447 1.43518C1.00017 1.89018 0.631876 2.43036 0.380602 3.02485C0.129329 3.61935 -9.78424e-09 4.25652 0 4.9C0 5.8709 0.292143 6.7739 0.789286 7.5355H0.783572L5 14L9.21643 7.5355H9.21143C9.72634 6.74911 10 5.83437 10 4.9ZM5 7C4.43168 7 3.88663 6.77875 3.48477 6.38492C3.08291 5.9911 2.85714 5.45695 2.85714 4.9C2.85714 4.34305 3.08291 3.8089 3.48477 3.41508C3.88663 3.02125 4.43168 2.8 5 2.8C5.56832 2.8 6.11337 3.02125 6.51523 3.41508C6.91709 3.8089 7.14286 4.34305 7.14286 4.9C7.14286 5.45695 6.91709 5.9911 6.51523 6.38492C6.11337 6.77875 5.56832 7 5 7Z" fill="#7D7D7D"/>
</svg>
