<svg width="22" height="22" viewBox="0 0 22 22" fill="none" xmlns="http://www.w3.org/2000/svg">
<path d="M14.0479 14.9188C13.8799 14.7201 13.7958 14.4946 13.7958 14.2423C13.7958 13.9899 13.8799 13.7799 14.0479 13.6125L15.7437 11.9167H9.16667C8.90695 11.9167 8.68908 11.8287 8.51308 11.6527C8.33708 11.4767 8.24939 11.2591 8.25 11C8.25 10.7403 8.338 10.5224 8.514 10.3464C8.69 10.1704 8.90756 10.0827 9.16667 10.0833H15.7437L14.0479 8.3875C13.8646 8.20417 13.7729 7.98631 13.7729 7.73392C13.7729 7.48153 13.8646 7.26397 14.0479 7.08125C14.216 6.89792 14.4262 6.80625 14.6786 6.80625C14.931 6.80625 15.1409 6.89028 15.3083 7.05834L18.6083 10.3583C18.7 10.45 18.7651 10.5493 18.8036 10.6563C18.8421 10.7632 18.861 10.8778 18.8604 11C18.8604 11.1222 18.8415 11.2368 18.8036 11.3438C18.7657 11.4507 18.7006 11.55 18.6083 11.6417L15.3083 14.9417C15.1097 15.1403 14.8919 15.2283 14.6548 15.2057C14.4176 15.1831 14.2154 15.0874 14.0479 14.9188ZM4.58333 19.25C4.07917 19.25 3.64742 19.0706 3.28808 18.7119C2.92875 18.3532 2.74939 17.9214 2.75 17.4167V4.58333C2.75 4.07917 2.92967 3.64742 3.289 3.28808C3.64833 2.92875 4.07978 2.74939 4.58333 2.75H10.0833C10.3431 2.75 10.5609 2.838 10.7369 3.014C10.9129 3.19 11.0006 3.40756 11 3.66667C11 3.92639 10.912 4.14425 10.736 4.32025C10.56 4.49625 10.3424 4.58395 10.0833 4.58333H4.58333V17.4167H10.0833C10.3431 17.4167 10.5609 17.5047 10.7369 17.6807C10.9129 17.8567 11.0006 18.0742 11 18.3333C11 18.5931 10.912 18.8109 10.736 18.9869C10.56 19.1629 10.3424 19.2506 10.0833 19.25H4.58333Z" fill="#FF4545"/>
</svg>
