<svg width="18" height="19" viewBox="0 0 18 19" fill="none" xmlns="http://www.w3.org/2000/svg">
<path d="M9 2.25625C9.31025 2.25625 9.61746 2.32075 9.90409 2.44608C10.1907 2.5714 10.4512 2.75509 10.6705 2.98665C10.8899 3.21822 11.0639 3.49313 11.1827 3.79568C11.3014 4.09824 11.3625 4.42252 11.3625 4.75C11.3625 5.07748 11.3014 5.40176 11.1827 5.70432C11.0639 6.00687 10.8899 6.28178 10.6705 6.51335C10.4512 6.74491 10.1907 6.9286 9.90409 7.05393C9.61746 7.17925 9.31025 7.24375 9 7.24375C8.37343 7.24375 7.77251 6.98102 7.32946 6.51335C6.88641 6.04568 6.6375 5.41138 6.6375 4.75C6.6375 4.08862 6.88641 3.45432 7.32946 2.98665C7.77251 2.51898 8.37343 2.25625 9 2.25625ZM9 12.9437C12.3413 12.9437 15.8625 14.6775 15.8625 15.4375V16.7437H2.1375V15.4375C2.1375 14.6775 5.65875 12.9437 9 12.9437ZM9 0C6.51375 0 4.5 2.12562 4.5 4.75C4.5 7.37437 6.51375 9.5 9 9.5C11.4862 9.5 13.5 7.37437 13.5 4.75C13.5 2.12562 11.4862 0 9 0ZM9 10.6875C5.99625 10.6875 0 12.2787 0 15.4375V19H18V15.4375C18 12.2787 12.0037 10.6875 9 10.6875Z" fill="#222222"/>
</svg>
