<svg width="17" height="20" viewBox="0 0 17 20" fill="none" xmlns="http://www.w3.org/2000/svg">
<path d="M6.61111 17.9444H10.3889C10.3889 18.9833 9.53889 19.8333 8.5 19.8333C7.46111 19.8333 6.61111 18.9833 6.61111 17.9444ZM17 16.0556V17H0V16.0556L1.88889 14.1667V8.5C1.88889 5.57222 3.77778 3.02222 6.61111 2.17222V1.88889C6.61111 0.85 7.46111 0 8.5 0C9.53889 0 10.3889 0.85 10.3889 1.88889V2.17222C13.2222 3.02222 15.1111 5.57222 15.1111 8.5V14.1667L17 16.0556ZM13.2222 8.5C13.2222 5.85556 11.1444 3.77778 8.5 3.77778C5.85556 3.77778 3.77778 5.85556 3.77778 8.5V15.1111H13.2222V8.5Z" fill="#222222"/>
</svg>
